<?xml version="1.0" encoding="UTF-8"?>
<svg id="_レイヤー_2" data-name="レイヤー 2" xmlns="http://www.w3.org/2000/svg" viewBox="0 0 1486 386.59">
  <defs>
    <style>
      .cls-1 {
        fill: #113086;
      }
    </style>
  </defs>
  <g id="data">
    <g>
      <path class="cls-1" d="M0,365.74V0l448.72,298.13V23.29h51.68v363.3L51.68,89.17v276.57H0Z"/>
      <path class="cls-1" d="M723.44,149.71v123.98c0,35.77,14.13,53.67,42.36,53.67s42.36-17.9,42.36-53.67v-123.98h49.9v125.09c0,17.3-2.15,32.22-6.43,44.8-4.15,11.25-11.31,21.36-21.51,30.39-16.86,14.64-38.31,21.96-64.32,21.96s-47.24-7.32-64.1-21.96c-10.36-9.03-17.68-19.14-21.96-30.39-4.15-10.04-6.21-25-6.21-44.8v-125.09h49.9Z"/>
      <path class="cls-1" d="M1023.67,59.89c0-8.71,3.17-16.25,9.54-22.62,6.37-6.37,13.97-9.54,22.85-9.54s16.7,3.17,23.07,9.54c6.37,6.21,9.54,13.81,9.54,22.85s-3.17,16.7-9.54,23.07c-6.21,6.37-13.81,9.54-22.85,9.54s-16.7-3.17-23.07-9.54c-6.37-6.37-9.54-14.13-9.54-23.29ZM1081.12,149.71v216.03h-49.9v-216.03h49.9Z"/>
      <path class="cls-1" d="M1325.46,196.29v169.45h-49.9v-169.45h-16.55v-46.58h16.55v-79.18h49.9v79.18h38.81v46.58h-38.81Z"/>
      <circle class="cls-1" cx="1468.42" cy="348.16" r="17.58"/>
    </g>
  </g>
</svg>